<mxfile host="Electron" agent="Mozilla/5.0 (X11; Linux x86_64) AppleWebKit/537.36 (KHTML, like Gecko) draw.io/24.7.8 Chrome/128.0.6613.36 Electron/32.0.1 Safari/537.36" version="24.7.8">
  <diagram name="Page-1" id="jmmwF9GPpmH1hPy_whT4">
    <mxGraphModel dx="2284" dy="1934" grid="1" gridSize="10" guides="1" tooltips="1" connect="1" arrows="1" fold="1" page="1" pageScale="1" pageWidth="850" pageHeight="1100" math="0" shadow="0">
      <root>
        <mxCell id="0" />
        <mxCell id="1" parent="0" />
        <mxCell id="mmH0-Z8Y5qAiqIHCNxW6-4" value="Posts" style="ellipse;shape=cloud;whiteSpace=wrap;html=1;align=center;fontSize=20;labelBackgroundColor=default;textShadow=1;labelBorderColor=none;shadow=1;sketch=1;curveFitting=1;jiggle=2;fillColor=default;" vertex="1" parent="1">
          <mxGeometry x="299" y="410" width="430" height="280" as="geometry" />
        </mxCell>
        <mxCell id="mmH0-Z8Y5qAiqIHCNxW6-3" value="Comments" style="ellipse;shape=cloud;whiteSpace=wrap;html=1;align=center;fontSize=20;labelBackgroundColor=default;textShadow=1;labelBorderColor=none;shadow=1;sketch=1;curveFitting=1;jiggle=2;" vertex="1" parent="1">
          <mxGeometry x="518" y="168" width="430" height="280" as="geometry" />
        </mxCell>
        <mxCell id="mmH0-Z8Y5qAiqIHCNxW6-2" value="User" style="ellipse;shape=cloud;whiteSpace=wrap;html=1;align=center;fontSize=20;labelBackgroundColor=default;textShadow=1;labelBorderColor=none;shadow=1;sketch=1;curveFitting=1;jiggle=2;" vertex="1" parent="1">
          <mxGeometry x="180" y="-51" width="430" height="280" as="geometry" />
        </mxCell>
        <mxCell id="kAXWFs5FDboAaZfHJdH4-12" value="Posts" style="ellipse;shape=cloud;whiteSpace=wrap;html=1;align=center;fontSize=20;labelBackgroundColor=default;textShadow=1;labelBorderColor=none;fillColor=#fff2cc;strokeColor=#d6b656;shadow=1;sketch=1;curveFitting=1;jiggle=2;" parent="1" vertex="1">
          <mxGeometry x="299" y="409" width="430" height="280" as="geometry" />
        </mxCell>
        <mxCell id="kAXWFs5FDboAaZfHJdH4-11" value="Comments" style="ellipse;shape=cloud;whiteSpace=wrap;html=1;align=center;fontSize=20;labelBackgroundColor=default;textShadow=1;labelBorderColor=none;fillColor=#d5e8d4;strokeColor=#82b366;shadow=1;sketch=1;curveFitting=1;jiggle=2;" parent="1" vertex="1">
          <mxGeometry x="518" y="169" width="430" height="280" as="geometry" />
        </mxCell>
        <mxCell id="kAXWFs5FDboAaZfHJdH4-3" value="User" style="ellipse;shape=cloud;whiteSpace=wrap;html=1;align=center;fontSize=20;labelBackgroundColor=default;textShadow=1;labelBorderColor=none;fillColor=#dae8fc;strokeColor=#6c8ebf;shadow=1;sketch=1;curveFitting=1;jiggle=2;" parent="1" vertex="1">
          <mxGeometry x="180" y="-51" width="430" height="280" as="geometry" />
        </mxCell>
        <mxCell id="kAXWFs5FDboAaZfHJdH4-27" style="edgeStyle=orthogonalEdgeStyle;rounded=0;orthogonalLoop=1;jettySize=auto;html=1;curved=1;strokeWidth=4;" parent="1" source="kAXWFs5FDboAaZfHJdH4-7" target="kAXWFs5FDboAaZfHJdH4-13" edge="1">
          <mxGeometry relative="1" as="geometry">
            <Array as="points">
              <mxPoint x="110" y="566" />
            </Array>
          </mxGeometry>
        </mxCell>
        <mxCell id="kAXWFs5FDboAaZfHJdH4-7" value="" style="outlineConnect=0;dashed=0;verticalLabelPosition=bottom;verticalAlign=top;align=center;html=1;shape=mxgraph.aws3.internet_gateway;fillColor=#F58534;gradientColor=none;shadow=1;" parent="1" vertex="1">
          <mxGeometry x="320" y="530" width="69" height="72" as="geometry" />
        </mxCell>
        <mxCell id="kAXWFs5FDboAaZfHJdH4-8" value="" style="outlineConnect=0;dashed=0;verticalLabelPosition=bottom;verticalAlign=top;align=center;html=1;shape=mxgraph.aws3.internet_gateway;fillColor=#F58534;gradientColor=none;shadow=1;" parent="1" vertex="1">
          <mxGeometry x="541" y="300" width="69" height="72" as="geometry" />
        </mxCell>
        <mxCell id="kAXWFs5FDboAaZfHJdH4-9" value="" style="outlineConnect=0;dashed=0;verticalLabelPosition=bottom;verticalAlign=top;align=center;html=1;shape=mxgraph.aws3.internet_gateway;fillColor=#F58534;gradientColor=none;shadow=1;" parent="1" vertex="1">
          <mxGeometry x="200" y="70" width="69" height="72" as="geometry" />
        </mxCell>
        <mxCell id="kAXWFs5FDboAaZfHJdH4-10" value="" style="image;aspect=fixed;html=1;points=[];align=center;fontSize=12;image=img/lib/azure2/compute/Azure_Spring_Cloud.svg;" parent="1" vertex="1">
          <mxGeometry x="391" y="120" width="68" height="68" as="geometry" />
        </mxCell>
        <mxCell id="kAXWFs5FDboAaZfHJdH4-13" value="" style="image;aspect=fixed;html=1;points=[];align=left;fontSize=12;image=img/lib/azure2/compute/Azure_Spring_Cloud.svg;shadow=1;" parent="1" vertex="1">
          <mxGeometry x="100" y="330" width="68" height="68" as="geometry" />
        </mxCell>
        <mxCell id="kAXWFs5FDboAaZfHJdH4-14" value="" style="image;aspect=fixed;html=1;points=[];align=center;fontSize=12;image=img/lib/azure2/compute/Azure_Spring_Cloud.svg;" parent="1" vertex="1">
          <mxGeometry x="720" y="341" width="68" height="68" as="geometry" />
        </mxCell>
        <mxCell id="kAXWFs5FDboAaZfHJdH4-15" value="" style="image;aspect=fixed;html=1;points=[];align=center;fontSize=12;image=img/lib/azure2/compute/Azure_Spring_Cloud.svg;" parent="1" vertex="1">
          <mxGeometry x="500" y="580" width="68" height="68" as="geometry" />
        </mxCell>
        <mxCell id="kAXWFs5FDboAaZfHJdH4-16" style="edgeStyle=orthogonalEdgeStyle;rounded=0;orthogonalLoop=1;jettySize=auto;html=1;entryX=0;entryY=0.5;entryDx=0;entryDy=0;entryPerimeter=0;labelBorderColor=none;curved=1;strokeWidth=4;exitX=0.132;exitY=-0.029;exitDx=0;exitDy=0;exitPerimeter=0;" parent="1" source="kAXWFs5FDboAaZfHJdH4-13" target="kAXWFs5FDboAaZfHJdH4-9" edge="1">
          <mxGeometry relative="1" as="geometry">
            <Array as="points">
              <mxPoint x="109" y="280" />
              <mxPoint x="70" y="280" />
              <mxPoint x="70" y="106" />
            </Array>
          </mxGeometry>
        </mxCell>
        <mxCell id="kAXWFs5FDboAaZfHJdH4-17" style="edgeStyle=orthogonalEdgeStyle;rounded=0;orthogonalLoop=1;jettySize=auto;html=1;entryX=0.044;entryY=0.941;entryDx=0;entryDy=0;entryPerimeter=0;labelBorderColor=none;curved=1;strokeWidth=4;" parent="1" source="kAXWFs5FDboAaZfHJdH4-9" target="kAXWFs5FDboAaZfHJdH4-10" edge="1">
          <mxGeometry relative="1" as="geometry">
            <Array as="points">
              <mxPoint x="310" y="106" />
              <mxPoint x="310" y="184" />
            </Array>
          </mxGeometry>
        </mxCell>
        <mxCell id="kAXWFs5FDboAaZfHJdH4-18" style="edgeStyle=orthogonalEdgeStyle;rounded=0;orthogonalLoop=1;jettySize=auto;html=1;entryX=0.855;entryY=0.145;entryDx=0;entryDy=0;entryPerimeter=0;curved=1;strokeWidth=4;" parent="1" source="kAXWFs5FDboAaZfHJdH4-10" target="kAXWFs5FDboAaZfHJdH4-9" edge="1">
          <mxGeometry relative="1" as="geometry" />
        </mxCell>
        <mxCell id="kAXWFs5FDboAaZfHJdH4-19" style="edgeStyle=orthogonalEdgeStyle;rounded=0;orthogonalLoop=1;jettySize=auto;html=1;entryX=0.603;entryY=0;entryDx=0;entryDy=0;entryPerimeter=0;curved=1;strokeWidth=4;exitX=0.145;exitY=0.855;exitDx=0;exitDy=0;exitPerimeter=0;" parent="1" source="kAXWFs5FDboAaZfHJdH4-9" target="kAXWFs5FDboAaZfHJdH4-13" edge="1">
          <mxGeometry relative="1" as="geometry">
            <Array as="points">
              <mxPoint x="100" y="132" />
              <mxPoint x="100" y="260" />
              <mxPoint x="141" y="260" />
            </Array>
          </mxGeometry>
        </mxCell>
        <mxCell id="kAXWFs5FDboAaZfHJdH4-20" style="edgeStyle=orthogonalEdgeStyle;rounded=0;orthogonalLoop=1;jettySize=auto;html=1;exitX=0.855;exitY=0.145;exitDx=0;exitDy=0;exitPerimeter=0;entryX=-0.059;entryY=0.206;entryDx=0;entryDy=0;entryPerimeter=0;curved=1;strokeWidth=4;" parent="1" source="kAXWFs5FDboAaZfHJdH4-8" target="kAXWFs5FDboAaZfHJdH4-14" edge="1">
          <mxGeometry relative="1" as="geometry" />
        </mxCell>
        <mxCell id="kAXWFs5FDboAaZfHJdH4-21" style="edgeStyle=orthogonalEdgeStyle;rounded=0;orthogonalLoop=1;jettySize=auto;html=1;entryX=1;entryY=0.5;entryDx=0;entryDy=0;entryPerimeter=0;curved=1;strokeWidth=4;" parent="1" source="kAXWFs5FDboAaZfHJdH4-14" target="kAXWFs5FDboAaZfHJdH4-8" edge="1">
          <mxGeometry relative="1" as="geometry">
            <Array as="points">
              <mxPoint x="650" y="375" />
              <mxPoint x="650" y="336" />
            </Array>
          </mxGeometry>
        </mxCell>
        <mxCell id="kAXWFs5FDboAaZfHJdH4-23" style="edgeStyle=orthogonalEdgeStyle;rounded=0;orthogonalLoop=1;jettySize=auto;html=1;entryX=0.145;entryY=0.145;entryDx=0;entryDy=0;entryPerimeter=0;curved=1;strokeWidth=4;exitX=1;exitY=0.471;exitDx=0;exitDy=0;exitPerimeter=0;" parent="1" source="kAXWFs5FDboAaZfHJdH4-13" target="kAXWFs5FDboAaZfHJdH4-8" edge="1">
          <mxGeometry relative="1" as="geometry">
            <Array as="points">
              <mxPoint x="340" y="362" />
              <mxPoint x="340" y="310" />
            </Array>
          </mxGeometry>
        </mxCell>
        <mxCell id="kAXWFs5FDboAaZfHJdH4-24" style="edgeStyle=orthogonalEdgeStyle;rounded=0;orthogonalLoop=1;jettySize=auto;html=1;entryX=0.985;entryY=0.838;entryDx=0;entryDy=0;entryPerimeter=0;curved=1;strokeWidth=4;" parent="1" source="kAXWFs5FDboAaZfHJdH4-8" target="kAXWFs5FDboAaZfHJdH4-13" edge="1">
          <mxGeometry relative="1" as="geometry" />
        </mxCell>
        <mxCell id="kAXWFs5FDboAaZfHJdH4-25" value="Webservice" style="text;html=1;align=center;verticalAlign=middle;resizable=0;points=[];autosize=1;strokeColor=none;fillColor=none;fontSize=20;labelBackgroundColor=default;textShadow=1;labelBorderColor=none;" parent="1" vertex="1">
          <mxGeometry x="145" y="289" width="130" height="40" as="geometry" />
        </mxCell>
        <mxCell id="kAXWFs5FDboAaZfHJdH4-26" style="edgeStyle=orthogonalEdgeStyle;rounded=0;orthogonalLoop=1;jettySize=auto;html=1;entryX=0.145;entryY=0.145;entryDx=0;entryDy=0;entryPerimeter=0;curved=1;strokeWidth=4;" parent="1" source="kAXWFs5FDboAaZfHJdH4-13" target="kAXWFs5FDboAaZfHJdH4-7" edge="1">
          <mxGeometry relative="1" as="geometry">
            <Array as="points">
              <mxPoint x="140" y="540" />
            </Array>
          </mxGeometry>
        </mxCell>
        <mxCell id="kAXWFs5FDboAaZfHJdH4-28" style="edgeStyle=orthogonalEdgeStyle;rounded=0;orthogonalLoop=1;jettySize=auto;html=1;entryX=0;entryY=0.162;entryDx=0;entryDy=0;entryPerimeter=0;strokeWidth=4;curved=1;" parent="1" source="kAXWFs5FDboAaZfHJdH4-7" target="kAXWFs5FDboAaZfHJdH4-15" edge="1">
          <mxGeometry relative="1" as="geometry">
            <Array as="points">
              <mxPoint x="470" y="566" />
              <mxPoint x="470" y="591" />
            </Array>
          </mxGeometry>
        </mxCell>
        <mxCell id="kAXWFs5FDboAaZfHJdH4-30" style="edgeStyle=orthogonalEdgeStyle;rounded=0;orthogonalLoop=1;jettySize=auto;html=1;entryX=0.855;entryY=0.855;entryDx=0;entryDy=0;entryPerimeter=0;strokeWidth=4;curved=1;" parent="1" source="kAXWFs5FDboAaZfHJdH4-15" target="kAXWFs5FDboAaZfHJdH4-7" edge="1">
          <mxGeometry relative="1" as="geometry" />
        </mxCell>
        <mxCell id="kAXWFs5FDboAaZfHJdH4-32" value="&lt;font style=&quot;font-size: 20px;&quot;&gt;Internet&lt;/font&gt;" style="image;aspect=fixed;perimeter=ellipsePerimeter;html=1;align=center;shadow=1;dashed=0;spacingTop=3;image=img/lib/active_directory/internet_cloud.svg;textShadow=1;fontSize=20;labelBackgroundColor=default;labelBorderColor=none;imageBackground=default;imageBorder=none;" parent="1" vertex="1">
          <mxGeometry x="-78" y="324" width="129.37" height="81.5" as="geometry" />
        </mxCell>
        <mxCell id="kAXWFs5FDboAaZfHJdH4-33" style="edgeStyle=orthogonalEdgeStyle;rounded=0;orthogonalLoop=1;jettySize=auto;html=1;entryX=0;entryY=0.5;entryDx=0;entryDy=0;strokeWidth=5;" parent="1" source="kAXWFs5FDboAaZfHJdH4-34" target="kAXWFs5FDboAaZfHJdH4-32" edge="1">
          <mxGeometry relative="1" as="geometry" />
        </mxCell>
        <mxCell id="kAXWFs5FDboAaZfHJdH4-34" value="" style="image;points=[];aspect=fixed;html=1;align=center;shadow=0;dashed=0;image=img/lib/allied_telesis/computer_and_terminals/Personal_Computer_with_Server.svg;" parent="1" vertex="1">
          <mxGeometry x="-178" y="333.55" width="62.400000000000006" height="62.400000000000006" as="geometry" />
        </mxCell>
        <mxCell id="kAXWFs5FDboAaZfHJdH4-35" style="edgeStyle=orthogonalEdgeStyle;rounded=0;orthogonalLoop=1;jettySize=auto;html=1;exitX=1;exitY=0.5;exitDx=0;exitDy=0;entryX=-0.029;entryY=0.529;entryDx=0;entryDy=0;entryPerimeter=0;strokeWidth=5;" parent="1" source="kAXWFs5FDboAaZfHJdH4-32" edge="1">
          <mxGeometry relative="1" as="geometry">
            <mxPoint x="100" y="365" as="targetPoint" />
          </mxGeometry>
        </mxCell>
        <mxCell id="kAXWFs5FDboAaZfHJdH4-36" value="Administrator" style="text;html=1;align=center;verticalAlign=middle;resizable=0;points=[];autosize=1;strokeColor=none;fillColor=none;fontSize=20;labelBackgroundColor=default;labelBorderColor=none;textShadow=1;" parent="1" vertex="1">
          <mxGeometry x="-218" y="412" width="140" height="40" as="geometry" />
        </mxCell>
      </root>
    </mxGraphModel>
  </diagram>
</mxfile>
